<svg id="paypal" data-name="paypal" xmlns="http://www.w3.org/2000/svg" viewBox="0 0 100 60"><defs><style>.cls-paypal-1,.cls-paypal-2,.cls-paypal-3{fill:none}.cls-paypal-2{clip-rule:evenodd}.cls-paypal-3{fill-rule:evenodd}.cls-paypal-4{fill:#fff}.cls-paypal-5{fill:#e9e9e9}.cls-paypal-6{clip-path:url(#clip-path)}.cls-paypal-7{fill:#253b80}.cls-paypal-8{fill:#179bd7}.cls-paypal-9{fill:#222d65}.cls-paypal-10{clip-path:url(#clip-path-4)}</style><clipPath id="clip-path"><path id="_Clipping_Path_" data-name="&lt;Clipping Path&gt;" class="cls-paypal-1" d="M11.31 19.79h79.38v21.12H11.31z"/></clipPath><clipPath id="clip-path-4"><path id="_Clipping_Path_4" data-name="&lt;Clipping Path&gt;" class="cls-paypal-2" d="M90.69 19.79v21.12H11.31V19.79"/></clipPath></defs><title>PayPal</title><g id="Rectangle"><g id="path-1"><rect class="cls-paypal-4" x="1" y="1" width="98" height="58" rx="3" ry="3"/><path class="cls-paypal-5" d="M96 2a2 2 0 0 1 2 2v52a2 2 0 0 1-2 2H4a2 2 0 0 1-2-2V4a2 2 0 0 1 2-2h92m0-2H4a4 4 0 0 0-4 4v52a4 4 0 0 0 4 4h92a4 4 0 0 0 4-4V4a4 4 0 0 0-4-4z"/></g></g><g id="_Group_" data-name="&lt;Group&gt;"><g id="_Group_6" data-name="&lt;Group&gt;"><g id="_Group_7" data-name="&lt;Group&gt;"><g id="_Group_8" data-name="&lt;Group&gt;"><g id="_Group_9" data-name="&lt;Group&gt;"><path id="_Compound_Path_" data-name="&lt;Compound Path&gt;" class="cls-paypal-7" d="M41.4 28.21c-.24 1.57-1.44 1.57-2.6 1.57h-.66l.46-2.93a.36.36 0 0 1 .36-.31h.3c.79 0 1.54 0 1.92.45a1.46 1.46 0 0 1 .22 1.22zm-.51-4.1h-4.37a.61.61 0 0 0-.6.51l-1.78 11.22a.36.36 0 0 0 .36.42h2.09a.61.61 0 0 0 .6-.51l.48-3a.61.61 0 0 1 .6-.51h1.39c2.88 0 4.55-1.4 5-4.16a3.37 3.37 0 0 0-.56-2.83 4.06 4.06 0 0 0-3.21-1.14z"/><path id="_Compound_Path_2" data-name="&lt;Compound Path&gt;" class="cls-paypal-7" d="M51.06 32.23a2.34 2.34 0 0 1-2.37 2 1.62 1.62 0 0 1-1.74-2 2.35 2.35 0 0 1 2.35-2 1.77 1.77 0 0 1 1.4.57 1.81 1.81 0 0 1 .36 1.43zM54 28.15h-2.1a.37.37 0 0 0-.36.31l-.09.59-.15-.21a3 3 0 0 0-2.49-.84 4.82 4.82 0 0 0-4.68 4.22 4 4 0 0 0 .78 3.22 3.28 3.28 0 0 0 2.64 1.07 4 4 0 0 0 2.9-1.2l-.09.58a.36.36 0 0 0 .36.42h1.88a.61.61 0 0 0 .6-.51l1.13-7.18a.36.36 0 0 0-.33-.47z"/><path id="_Path_" data-name="&lt;Path&gt;" class="cls-paypal-7" d="M65.14 28.15H63a.61.61 0 0 0-.5.27l-2.87 4.28-1.23-4.11a.61.61 0 0 0-.58-.43h-2.08a.37.37 0 0 0-.35.48l2.32 6.81-2.18 3.08a.36.36 0 0 0 .3.58h2.1a.61.61 0 0 0 .5-.26l7-10.11a.36.36 0 0 0-.29-.59z"/><path id="_Compound_Path_3" data-name="&lt;Compound Path&gt;" class="cls-paypal-8" d="M72.62 28.21c-.24 1.57-1.44 1.57-2.6 1.57h-.66l.46-2.93a.36.36 0 0 1 .36-.31h.3c.79 0 1.54 0 1.92.45a1.46 1.46 0 0 1 .22 1.22zm-.51-4.1h-4.37a.61.61 0 0 0-.6.51l-1.77 11.22a.36.36 0 0 0 .36.42H68a.43.43 0 0 0 .42-.36l.5-3.18a.61.61 0 0 1 .6-.51h1.39c2.88 0 4.55-1.4 5-4.16a3.37 3.37 0 0 0-.56-2.83 4.06 4.06 0 0 0-3.23-1.11z"/><path id="_Compound_Path_4" data-name="&lt;Compound Path&gt;" class="cls-paypal-8" d="M82.28 32.23a2.34 2.34 0 0 1-2.37 2 1.62 1.62 0 0 1-1.74-2 2.35 2.35 0 0 1 2.35-2 1.77 1.77 0 0 1 1.4.57 1.81 1.81 0 0 1 .36 1.43zm2.92-4.08h-2.1a.36.36 0 0 0-.36.31l-.09.59-.15-.21A3 3 0 0 0 80 28a4.82 4.82 0 0 0-4.68 4.22 4 4 0 0 0 .78 3.22 3.28 3.28 0 0 0 2.64 1.07 4 4 0 0 0 2.9-1.2l-.09.58a.36.36 0 0 0 .36.42h1.89a.61.61 0 0 0 .6-.51l1.13-7.18a.37.37 0 0 0-.33-.47z"/><path id="_Path_2" data-name="&lt;Path&gt;" class="cls-paypal-8" d="M87.68 24.41l-1.8 11.43a.36.36 0 0 0 .36.42H88a.61.61 0 0 0 .6-.51l1.77-11.23a.36.36 0 0 0-.36-.42H88a.37.37 0 0 0-.32.31z"/><path id="_Path_3" data-name="&lt;Path&gt;" class="cls-paypal-7" d="M16 38.45l.33-2.13H12l2.47-15.69a.21.21 0 0 1 .07-.12.2.2 0 0 1 .13 0h6c2 0 3.37.41 4.09 1.23a2.81 2.81 0 0 1 .65 1.23 4.43 4.43 0 0 1 0 1.69v.48l.34.19a2.36 2.36 0 0 1 .68.52A2.42 2.42 0 0 1 27 27a5.25 5.25 0 0 1-.08 1.8 6.34 6.34 0 0 1-.74 2A4.19 4.19 0 0 1 25 32.14a4.74 4.74 0 0 1-1.57.71 7.85 7.85 0 0 1-2 .23H21a1.41 1.41 0 0 0-1.39 1.19v.19L19 38.21v.14a.12.12 0 0 1 0 .08h-.06z"/><path id="_Path_4" data-name="&lt;Path&gt;" class="cls-paypal-8" d="M26.07 24.69q0 .17-.06.35c-.79 4.07-3.5 5.47-7 5.47h-1.73a.86.86 0 0 0-.85.72l-.9 5.77-.26 1.62a.45.45 0 0 0 .44.52h3.12a.75.75 0 0 0 .74-.63v-.16l.59-3.73v-.2a.75.75 0 0 1 .74-.63h.47c3 0 5.4-1.23 6.09-4.79a4.07 4.07 0 0 0-.63-3.6 3 3 0 0 0-.76-.71z"/><path id="_Path_5" data-name="&lt;Path&gt;" class="cls-paypal-9" d="M25.24 24.36l-.37-.1-.4-.07a9.79 9.79 0 0 0-1.55-.11h-4.71a.75.75 0 0 0-.74.63l-1 6.34v.18a.86.86 0 0 1 .85-.72H19c3.46 0 6.17-1.41 7-5.47 0-.12 0-.24.06-.35a4.22 4.22 0 0 0-.65-.27z"/><path id="_Path_6" data-name="&lt;Path&gt;" class="cls-paypal-7" d="M17.47 24.71a.75.75 0 0 1 .74-.63h4.71a9.78 9.78 0 0 1 1.55.11l.4.07.37.1.18.06a4.28 4.28 0 0 1 .65.27 3.84 3.84 0 0 0-.81-3.45c-.9-1-2.51-1.46-4.58-1.46h-6a.86.86 0 0 0-.85.73l-2.5 15.85a.52.52 0 0 0 .51.6h3.71l.93-5.91z"/></g></g></g></g></g></svg>