<svg id="visa" data-name="visa" xmlns="http://www.w3.org/2000/svg" viewBox="0 0 100 60"><defs><style>.cls-visa-1{fill:#fff}.cls-visa-2{fill:#e9e9e9}.cls-visa-3{fill:#fcb316}.cls-visa-4{fill:#10357f}</style></defs><title>Visa</title><g id="Rectangle"><g id="path-1"><rect class="cls-visa-1" x="1" y="1" width="98" height="58" rx="3" ry="3"/><path class="cls-visa-2" d="M96 2a2 2 0 0 1 2 2v52a2 2 0 0 1-2 2H4a2 2 0 0 1-2-2V4a2 2 0 0 1 2-2h92m0-2H4a4 4 0 0 0-4 4v52a4 4 0 0 0 4 4h92a4 4 0 0 0 4-4V4a4 4 0 0 0-4-4z"/></g></g><path class="cls-visa-3" d="M11.4 47.03h76.78v6.88H11.4z"/><path class="cls-visa-4" d="M11.4 6.1h76.78v6.88H11.4zM42.14 20.56l-7.93 18.92H29l-3.9-15.1a2.08 2.08 0 0 0-1.1-1.66 20.48 20.48 0 0 0-4.83-1.61l.12-.55h8.33a2.28 2.28 0 0 1 2.26 1.93l2.02 10.95L37 20.56zm20.27 12.75c0-5-6.9-5.27-6.86-7.5 0-.68.66-1.4 2.08-1.58a9.24 9.24 0 0 1 4.83.85l.86-4a13.2 13.2 0 0 0-4.58-.84c-4.84 0-8.24 2.57-8.27 6.25 0 2.72 2.43 4.24 4.28 5.15s2.55 1.5 2.54 2.36c0 1.27-1.52 1.83-2.93 1.85a10.23 10.23 0 0 1-5-1.2l-.89 4.15a14.87 14.87 0 0 0 5.44 1c5.14 0 8.51-2.54 8.52-6.47m12.78 6.18h4.53l-4-18.92h-4.15A2.23 2.23 0 0 0 69.5 22l-7.34 17.48h5.14l1-2.83h6.3zm-5.46-6.7l2.58-7.11 1.48 7.11zM49.13 20.56l-4 18.92h-4.9l4-18.92z"/></svg>